Coordinates
version=1
nRows=9
nColumns=24
inDegrees=yes

Units are S.I. units (second, meters, Newtons, ...)
Angles are in degrees.

endheader
time	pelvis_tilt	pelvis_list	pelvis_rotation	pelvis_tx	pelvis_ty	pelvis_tz	hip_flexion_r	hip_adduction_r	hip_rotation_r	knee_angle_r	ankle_angle_r	subtalar_angle_r	mtp_angle_r	hip_flexion_l	hip_adduction_l	hip_rotation_l	knee_angle_l	ankle_angle_l	subtalar_angle_l	mtp_angle_l	lumbar_extension	lumbar_bending	lumbar_rotation
      0.01000000	     67.96185616	      5.05482877	     -1.17481313	      0.55788317	      1.05764795	     -0.30487018	     -0.34151306	    -13.14338013	      4.36533187	    -62.41887037	    -16.54823303	     -1.95266373	      0.00000000	      2.23517920	     -6.48889145	      8.70589693	      3.43125558	    -21.64591162	     13.76020522	      0.00000000	      0.00000000	      0.00000000	      0.00000000
      0.02000000	     67.97081644	      5.05131937	     -1.18791850	      0.55792680	      1.05762979	     -0.30485695	     -0.34517464	    -13.14192853	      4.37543411	    -62.42419692	    -16.54476249	     -1.95310916	      0.00000000	      2.24802468	     -6.49070071	      8.66031392	      3.42332940	    -21.56644116	     13.79093807	      0.00000000	      0.00000000	      0.00000000	      0.00000000
      0.03000000	     67.97881903	      5.05159304	     -1.19746787	      0.55794320	      1.05761164	     -0.30481945	     -0.34804867	    -13.13864770	      4.38280340	    -62.42920871	    -16.54076852	     -1.95295523	      0.00000000	      2.25828343	     -6.49628203	      8.60517202	      3.41466479	    -21.48227877	     13.81358722	      0.00000000	      0.00000000	      0.00000000	      0.00000000
      0.04000000	     67.98519596	      5.05356371	     -1.20258300	      0.55793269	      1.05760132	     -0.30477902	     -0.35024648	    -13.13404886	      4.38679229	    -62.43380710	    -16.53660799	     -1.95221090	      0.00000000	      2.26588056	     -6.50443679	      8.54150443	      3.40709747	    -21.39979157	     13.82346911	      0.00000000	      0.00000000	      0.00000000	      0.00000000
      0.05000000	     67.98982443	      5.05511621	     -1.20306751	      0.55790913	      1.05760097	     -0.30474364	     -0.35187403	    -13.12869889	      4.38689833	    -62.43805636	    -16.53301130	     -1.95104160	      0.00000000	      2.27201459	     -6.51317072	      8.47291507	      3.40419895	    -21.32994691	     13.81569866	      0.00000000	      0.00000000	      0.00000000	      0.00000000
      0.06000000	     67.99281091	      5.05495484	     -1.19974567	      0.55789100	      1.05760765	     -0.30471671	     -0.35284339	    -13.12334355	      4.38344961	    -62.44193001	    -16.53106202	     -1.94989778	      0.00000000	      2.27881352	     -6.52016703	      8.40625154	      3.41054322	    -21.28709175	     13.78754879	      0.00000000	      0.00000000	      0.00000000	      0.00000000
      0.07000000	     67.99343081	      5.05331712	     -1.19420440	      0.55788209	      1.05761368	     -0.30471275	     -0.35269598	    -13.11913992	      4.37810145	    -62.44466442	    -16.53200441	     -1.94957939	      0.00000000	      2.28784221	     -6.52375874	      8.35103425	      3.42991288	    -21.28585594	     13.74018343	      0.00000000	      0.00000000	      0.00000000	      0.00000000
      0.08000000	     67.99020176	      5.05195147	     -1.18850699	      0.55788288	      1.05760871	     -0.30474090	     -0.35061060	    -13.11761730	      4.37368067	    -62.44428462	    -16.53689187	     -1.95114699	      0.00000000	      2.29933542	     -6.52360947	      8.31748242	      3.46372101	    -21.33653781	     13.67905305	      0.00000000	      0.00000000	      0.00000000	      0.00000000
      0.09000000	     67.98219560	      5.05384560	     -1.18476225	      0.55790395	      1.05758917	     -0.30477467	     -0.34564717	    -13.12021670	      4.37325695	    -62.43803768	    -16.54613338	     -1.95565228	      0.00000000	      2.31252988	     -6.52134291	      8.31324532	      3.51030605	    -21.43999152	     13.61263853	      0.00000000	      0.00000000	      0.00000000	      0.00000000
